<svg id="Layer_1" enable-background="new 0 0 512 512" height="512" viewBox="0 0 512 512" width="512" xmlns="http://www.w3.org/2000/svg"><g><g><path d="m508.046 455.013-60.445-60.445c-.004-.004-.008-.009-.012-.013l-21.213-21.213c-.005-.005-.01-.008-.014-.013l-18.725-18.725c-2.55-2.55-5.939-3.955-9.546-3.955s-6.996 1.404-9.546 3.954l-1.061 1.061-26.72-26.727c24.181-30.226 39.881-67.6 43.448-108.633h2.434c7.848 0 14.702-5.312 16.668-12.917 1.126-4.357 2.602-10.5 3.24-15.027.089-.635.49-1.213 1.072-1.549l12.544-7.224c.585-.337 1.292-.396 1.886-.155 4.263 1.719 10.351 3.52 14.707 4.728 7.558 2.097 15.58-1.177 19.505-7.958l6.779-11.712c3.937-6.802 2.76-15.396-2.861-20.899-3.22-3.152-7.817-7.501-11.438-10.322-.501-.391-.801-1.024-.801-1.693v-14.43c0-.669.3-1.303.801-1.693 3.621-2.821 8.219-7.17 11.438-10.322 5.622-5.503 6.799-14.097 2.862-20.899l-6.779-11.711c-3.925-6.782-11.945-10.052-19.505-7.959-4.356 1.208-10.444 3.009-14.707 4.728-.594.24-1.301.182-1.886-.155l-12.544-7.225c-.582-.335-.983-.914-1.072-1.547-.639-4.527-2.114-10.671-3.24-15.028-1.966-7.605-8.82-12.917-16.668-12.917h-13.575c-7.847 0-14.701 5.311-16.669 12.917-1.125 4.353-2.6 10.494-3.239 15.027-.089.634-.49 1.213-1.073 1.549l-12.543 7.224c-.321.185-.678.277-1.033.291-11.568-13.965-24.919-26.334-39.756-36.753-3.392-2.382-8.067-1.561-10.448 1.828-2.381 3.39-1.563 8.067 1.827 10.448 8.394 5.895 16.264 12.474 23.574 19.636-4.219 1.181-7.952 3.945-10.263 7.937l-1.152 1.99c-32.06-30.941-75.165-48.512-119.797-48.512-95.117 0-172.5 77.383-172.5 172.5s77.383 172.5 172.5 172.5 172.5-77.383 172.5-172.5c0-.282-.006-.563-.008-.845.477 2.049.97 4.03 1.411 5.735 1.634 6.317 6.644 11.04 12.79 12.462-8.781 95.997-89.383 170.148-186.693 170.148-103.388 0-187.5-84.112-187.5-187.5s84.112-187.5 187.5-187.5c28.412 0 55.7 6.189 81.107 18.397 3.733 1.793 8.215.222 10.008-3.512 1.794-3.733.222-8.214-3.512-10.008-27.45-13.189-56.924-19.877-87.603-19.877-111.659 0-202.5 90.841-202.5 202.5 0 57.706 24.266 109.849 63.125 146.77l-10.149 5.852c-.594.341-1.287.396-1.885.156-3.349-1.354-8.293-2.945-14.714-4.736-7.554-2.088-15.57 1.185-19.498 7.961l-6.783 11.715c-3.936 6.808-2.756 15.405 2.874 20.909 4.74 4.629 8.588 8.1 11.419 10.302.515.403.811 1.023.811 1.702v14.43c0 .671-.297 1.303-.808 1.699-3.636 2.84-8.223 7.181-11.427 10.319-5.622 5.499-6.802 14.091-2.866 20.9l6.781 11.713c3.927 6.773 11.942 10.046 19.514 7.953 6.404-1.786 11.349-3.378 14.685-4.726.612-.246 1.304-.191 1.895.149l12.555 7.238c.585.335.974.902 1.065 1.548.633 4.46 2.106 10.624 3.235 15.026 1.968 7.602 8.823 12.911 16.671 12.911h13.58c7.843 0 14.693-5.309 16.661-12.913 1.126-4.352 2.602-10.491 3.246-15.042.088-.629.486-1.204 1.066-1.537l12.55-7.23c.583-.336 1.284-.393 1.875-.156 4.194 1.696 10.315 3.509 14.719 4.734 7.556 2.093 15.572-1.178 19.503-7.959l6.783-11.715c3.933-6.804 2.753-15.396-2.865-20.892-3.208-3.142-7.795-7.482-11.443-10.332-.498-.387-.795-1.019-.795-1.689v-14.43c0-.679.296-1.299.783-1.681.156-.121.331-.268.491-.395 12.887 2.582 26.21 3.946 39.846 3.946 47.718 0 91.711-16.52 126.421-44.253l26.744 26.737-1.061 1.061c-2.551 2.55-3.955 5.94-3.955 9.546s1.404 6.997 3.954 9.546l18.738 18.738 21.213 21.213.005.005 15.868 15.868c2.93 2.929 7.678 2.929 10.607 0s2.929-7.678 0-10.606l-10.57-10.57 31.819-31.819 54.093 54.093-31.819 31.82-20.925-20.926c-2.93-2.929-7.678-2.929-10.607 0s-2.929 7.678 0 10.606l21.986 21.986c2.55 2.55 5.939 3.955 9.546 3.955 3.605 0 6.996-1.404 9.547-3.954l33.939-33.94c2.551-2.55 3.955-5.94 3.955-9.546.002-3.608-1.402-6.998-3.952-9.547zm-355.093-23.932c2.41 1.882 6.021 5.156 10.173 9.221.719.703.871 1.799.374 2.66l-6.779 11.707c-.505.872-1.533 1.295-2.511 1.025-5.688-1.583-10.344-3.069-13.113-4.189-4.907-1.98-10.367-1.591-14.98 1.066l-12.55 7.23c-4.56 2.626-7.713 7.285-8.433 12.447-.425 3-1.46 7.75-2.914 13.373-.254.983-1.134 1.669-2.14 1.669h-13.58c-1.011 0-1.896-.687-2.146-1.653-1.457-5.683-2.49-10.438-2.91-13.397-.751-5.258-3.832-9.794-8.438-12.437l-12.543-7.231c-4.608-2.655-10.068-3.044-14.994-1.064-2.789 1.128-7.32 2.576-13.087 4.184-.978.272-2.016-.149-2.521-1.019l-6.777-11.705c-.5-.866-.348-1.962.375-2.668 4.147-4.062 7.759-7.335 10.156-9.208 4.124-3.208 6.586-8.266 6.586-13.53v-14.43c0-5.325-2.395-10.252-6.585-13.529-2.337-1.818-5.947-5.088-10.162-9.203-.721-.705-.873-1.804-.373-2.669l6.779-11.707c.505-.872 1.543-1.294 2.506-1.026 5.783 1.612 10.314 3.061 13.116 4.194 4.914 1.975 10.372 1.586 14.984-1.071l12.522-7.22c.671-.385 1.299-.824 1.905-1.288 4.396 3.577 8.942 6.976 13.632 10.181-20.329 2.363-36.162 19.644-36.162 40.556 0 4.142 3.357 7.5 7.5 7.5s7.5-3.358 7.5-7.5c0-14.249 11.629-25.841 25.924-25.841 14.294 0 25.924 11.592 25.924 25.841s-11.63 25.841-25.924 25.841c-5.646 0-11.011-1.776-15.513-5.135-3.32-2.476-8.02-1.792-10.496 1.526-2.478 3.32-1.794 8.02 1.525 10.497 7.113 5.308 15.58 8.113 24.483 8.113 22.565 0 40.924-18.321 40.924-40.841 0-6.841-1.702-13.29-4.694-18.96 5.824 2.258 11.774 4.262 17.843 5.982-.642 1.82-.98 3.762-.98 5.761v14.43c.001 5.261 2.463 10.319 6.574 13.517zm49.547-71.081c-86.846 0-157.5-70.654-157.5-157.5s70.654-157.5 157.5-157.5c42.192 0 82.895 17.203 112.458 47.352-1.598 5.896.04 12.342 4.573 16.779 3.224 3.155 7.824 7.507 11.437 10.321.502.391.802 1.024.802 1.694v14.43c0 .669-.3 1.302-.801 1.693-3.613 2.815-8.214 7.167-11.438 10.322-5.623 5.503-6.799 14.098-2.861 20.899l6.778 11.711c3.925 6.783 11.947 10.055 19.505 7.959 4.355-1.208 10.443-3.008 14.708-4.728.362-.146.764-.169 1.156-.098.77 6.314 1.182 12.74 1.182 19.165.001 86.847-70.653 157.501-157.499 157.501zm177.076-182.186-12.544-7.225c-2.67-1.537-5.622-2.315-8.587-2.315-2.16 0-4.327.414-6.395 1.248-2.82 1.137-7.475 2.623-13.105 4.185-.979.27-2.011-.148-2.515-1.018l-6.778-11.712c-.501-.865-.349-1.961.371-2.666 4.166-4.078 7.776-7.349 10.164-9.209 4.184-3.259 6.582-8.189 6.582-13.525v-14.43c0-5.335-2.398-10.265-6.582-13.525-2.388-1.861-5.998-5.131-10.164-9.209-.72-.705-.872-1.801-.371-2.667l.606-1.047c.055-.09.107-.181.158-.272l6.015-10.393c.504-.87 1.535-1.289 2.515-1.018 5.631 1.561 10.285 3.047 13.104 4.184 4.908 1.979 10.366 1.59 14.983-1.068l12.543-7.224c4.623-2.663 7.699-7.201 8.44-12.453.422-2.996 1.455-7.744 2.908-13.367.255-.985 1.138-1.672 2.146-1.672h13.575c1.009 0 1.891.687 2.145 1.67 1.455 5.63 2.488 10.378 2.91 13.37.741 5.251 3.817 9.79 8.439 12.451l12.543 7.224c4.615 2.659 10.076 3.048 14.984 1.069 2.818-1.137 7.473-2.623 13.104-4.185.98-.271 2.011.148 2.515 1.019l6.779 11.711c.501.865.348 1.961-.373 2.667-4.16 4.073-7.77 7.344-10.164 9.209-4.183 3.26-6.581 8.189-6.581 13.525v14.43c0 5.336 2.398 10.266 6.582 13.525 2.394 1.865 6.003 5.136 10.164 9.209.72.705.873 1.802.372 2.667l-6.779 11.712c-.504.87-1.534 1.29-2.515 1.018-5.631-1.561-10.285-3.047-13.104-4.184-4.91-1.98-10.371-1.59-14.983 1.068l-12.544 7.224c-4.622 2.662-7.698 7.201-8.439 12.452v.001c-.422 2.991-1.455 7.738-2.91 13.369-.254.983-1.136 1.67-2.145 1.67h-13.575c-1.009 0-1.892-.688-2.146-1.67-1.454-5.625-2.487-10.373-2.909-13.37-.74-5.252-3.816-9.791-8.439-12.453zm-28.642 162.508 25.94 25.947-10.605 10.605-25.952-25.946c3.667-3.404 7.21-6.94 10.617-10.606zm47.157 25.949 12.374 12.374-31.82 31.819-12.374-12.374zm1.768 65.407-10.607-10.607 31.82-31.819 10.606 10.606z"/><path d="m440.782 128.361c0-22.52-18.358-40.842-40.924-40.842-13.05 0-24.684 6.135-32.183 15.66-.286.316-.548.65-.773 1.005-5.003 6.774-7.967 15.135-7.967 24.177 0 22.52 18.358 40.841 40.924 40.841s40.923-18.321 40.923-40.841zm-15 0c0 14.249-11.629 25.841-25.924 25.841-.223 0-.443-.011-.665-.017-3.811-15.567-9.465-30.609-16.859-44.848 4.618-4.23 10.772-6.818 17.523-6.818 14.296 0 25.925 11.593 25.925 25.842zm-51.78-1.764c2.894 6.528 5.409 13.213 7.533 20.027-4.693-4.679-7.6-11.139-7.6-18.263 0-.594.027-1.18.067-1.764z"/><path d="m300.932 233.192h-43.496l-24.883-63.608c-1.125-2.877-3.898-4.768-6.983-4.768-.022 0-.045 0-.067 0-3.112.027-5.884 1.974-6.966 4.892l-36.306 97.901-26.292-74.522c-.98-2.78-3.498-4.728-6.436-4.978-2.94-.25-5.748 1.243-7.186 3.817l-23.039 41.266h-23.03c-4.143 0-7.5 3.358-7.5 7.5s3.357 7.5 7.5 7.5h27.433c2.718 0 5.224-1.471 6.549-3.844l17.089-30.609 27.664 78.41c1.05 2.979 3.854 4.979 7.013 5.005h.06c3.134 0 5.941-1.95 7.032-4.892l36.669-98.88 19.576 50.043c1.125 2.875 3.896 4.768 6.984 4.768h48.615c4.143 0 7.5-3.358 7.5-7.5s-3.358-7.501-7.5-7.501z"/></g></g></svg>