<svg height="496pt" viewBox="0 0 496 496" width="496pt" xmlns="http://www.w3.org/2000/svg"><path d="m201.761719 185.761719c4 4 6.238281 9.4375 6.238281 15.039062 0 5.839844-2.398438 11.4375-6.71875 15.519531l-12.882812 12.078126-69.839844-69.839844 8.882812-7.359375c5.519532-4.640625 12.558594-7.199219 19.757813-7.199219 8.160156 0 16.082031 3.28125 21.839843 9.039062zm0 0" fill="#f0bc5e"/><path d="m328 324.800781c0 7.199219-2.558594 14.238281-7.199219 19.757813l-7.359375 8.882812-69.839844-69.839844 12.078126-12.882812c4.082031-4.320312 9.679687-6.71875 15.519531-6.71875 5.601562 0 11.039062 2.238281 15.039062 6.238281l32.722657 32.722657c5.757812 5.757812 9.039062 13.679687 9.039062 21.839843zm0 0" fill="#f0bc5e"/><path d="m48 448h16v16h-16zm0 0"/><path d="m80 448h16v16h-16zm0 0"/><path d="m112 448h16v16h-16zm0 0"/><path d="m384 448h64v16h-64zm0 0"/><path d="m480 416v-264c0-22.054688-17.945312-40-40-40h-48v16h48c13.230469 0 24 10.769531 24 24v264h-16v-256c0-8.824219-7.175781-16-16-16h-32v16h32v272h48v24c0 13.230469-10.769531 24-24 24h-416c-13.230469 0-24-10.769531-24-24v-24h164.824219c11.414062 10.199219 26.464843 16 41.808593 16h50.75c15.34375 0 30.394532-5.800781 41.808594-16h100.808594v-16h-107.3125l-2.34375 2.34375c-8.679688 8.679688-20.695312 13.65625-32.96875 13.65625h-50.75c-12.273438 0-24.289062-4.976562-32.96875-13.65625l-2.34375-2.34375h-123.3125v-256.097656l40.992188-.476563-2.953126 2.460938c-14.007812 11.671875-22.039062 28.816406-22.039062 47.722656 0 10.832031 2.878906 21.503906 8.335938 30.847656 32.550781 55.808594 78.839843 103.191407 133.863281 137.054688l8.777343 5.398437c9.648438 5.945313 20.75 9.089844 32.09375 9.089844 18.234376 0 35.378907-8.03125 47.042969-22.03125l16.871094-20.25c5.816406-6.992188 9.015625-15.839844 9.015625-24.910156 0-10.242188-4.160156-20.273438-11.398438-27.511719l-32.730468-32.730469c-5.519532-5.527344-12.855469-8.566406-20.671875-8.566406-8.054688 0-15.832031 3.367188-21.335938 9.238281l-15.3125 16.335938c-7.535156 8.035156-21.390625 8.25-29.191406.472656l-15.40625-15.40625c-3.832031-3.839844-5.953125-8.945313-5.953125-14.367187 0-5.59375 2.34375-11 6.425781-14.824219l16.34375-15.320313c5.863281-5.503906 9.230469-13.28125 9.230469-21.328125 0-7.816406-3.039062-15.160156-8.558594-20.671875l-32.730468-32.722656c-7.238282-7.246094-17.269532-11.40625-27.519532-11.40625-8.007812 0-15.75 2.617188-22.289062 7.191406l-61.09375.710938c-8.71875.105468-15.816406 7.28125-15.816406 16v256.097656h-15.992188v-264c0-13.230469 10.769531-24 24-24h144v-16h-144c-22.054688 0-40 17.945312-40 40v264h-16v40c0 22.054688 17.945312 40 40 40h416c22.054688 0 40-17.945312 40-40v-40zm-332.808594-264c6.03125 0 11.9375 2.449219 16.199219 6.710938l32.730469 32.722656c2.503906 2.503906 3.878906 5.824218 3.878906 9.367187 0 3.648438-1.519531 7.167969-4.175781 9.664063l-16.335938 15.320312c-7.304687 6.824219-11.488281 16.488282-11.488281 26.488282 0 9.695312 3.785156 18.824218 10.640625 25.679687l15.40625 15.40625c6.855469 6.855469 15.984375 10.640625 25.6875 10.640625 10 0 19.65625-4.183594 26.496094-11.488281l15.3125-16.328125c4.914062-5.246094 13.945312-5.390625 19.023437-.3125l32.730469 32.730468c4.253906 4.261719 6.703125 10.175782 6.703125 16.207032 0 5.34375-1.886719 10.558594-5.3125 14.671875l-16.871094 20.246093c-8.617187 10.34375-21.28125 16.273438-34.746094 16.273438-8.382812 0-16.574218-2.320312-23.703124-6.710938l-8.773438-5.402343c-52.792969-32.488281-97.203125-77.949219-128.441406-131.496094-4.015625-6.894531-6.152344-14.773437-6.152344-23.453125 0-13.464844 5.929688-26.136719 16.28125-34.753906l20.230469-16.871094c4.121093-3.425781 9.328125-5.3125 14.679687-5.3125zm0 0"/><path d="m256 198.945312v-54.945312h-40c-13.230469 0-24-10.769531-24-24v-96c0-13.230469 10.769531-24 24-24h160c13.230469 0 24 10.769531 24 24v96c0 13.230469-10.769531 24-24 24h-37.574219zm0 0" fill="#f0bc5e"/><path d="m224 32h144v16h-144zm0 0"/><path d="m224 64h144v16h-144zm0 0"/><path d="m352 96h16v16h-16zm0 0"/><path d="m224 96h112v16h-112zm0 0"/></svg>