<?xml version="1.0" encoding="iso-8859-1"?>
<!-- Generator: Adobe Illustrator 19.0.0, SVG Export Plug-In . SVG Version: 6.00 Build 0)  -->
<svg xmlns="http://www.w3.org/2000/svg" xmlns:xlink="http://www.w3.org/1999/xlink" version="1.1" id="Capa_1" x="0px" y="0px" viewBox="0 0 496 496" style="enable-background:new 0 0 496 496;" xml:space="preserve">
<polygon style="fill:#FFA64D;" points="424,8 424,40 360,40 360,72 296,72 296,104 232,104 232,136 168,136 168,200 488,200 488,8   "/>
<path style="fill:#333333;" d="M227.712,208H496V0h-80v32h-64v32h-64v32h-36.152C237.4,40.024,186.408,0,128,0  C57.424,0,0,57.424,0,128c0,53.6,33.152,99.544,80,118.576V272H64v16h16v160c0,26.472,21.528,48,48,48s48-21.528,48-48V288h16v-16  h-16v-25.416c7.392-2.984,14.528-6.528,21.232-10.856l106.192,197.216C298.784,439.48,296,447.4,296,456c0,22.056,17.944,40,40,40  s40-17.944,40-40c0-11.024-4.48-21.016-11.72-28.256l81.112-125.352c3.4,0.944,6.912,1.608,10.608,1.608c22.056,0,40-17.944,40-40  s-17.944-40-40-40s-40,17.944-40,40c0,12.592,5.968,23.704,15.088,31.04l-80.176,123.912C346.296,417.08,341.28,416,336,416  c-7.488,0-14.416,2.192-20.408,5.792l-105.36-195.664C216.592,220.776,222.376,214.648,227.712,208z M456,240  c13.232,0,24,10.768,24,24s-10.768,24-24,24s-24-10.768-24-24S442.768,240,456,240z M360,456c0,13.232-10.768,24-24,24  s-24-10.768-24-24s10.768-24,24-24S360,442.768,360,456z M160,128v55.24c-9.712,5.64-20.648,8.76-32,8.76c-35.288,0-64-28.712-64-64  s28.712-64,64-64s64,28.712,64,64H160z M176,144h48v48h-48V144z M416,48v112h16V16h48v176h-48v-16h-16v16h-48V48H416z M304,128V80  h48v112h-48v-48h-16v48h-48v-80h48v16H304z M16,128C16,66.24,66.24,16,128,16c49.728,0,93.4,33.104,107.36,80H224v32h-16  c0-44.112-35.888-80-80-80s-80,35.888-80,80s35.888,80,80,80c11.136,0,21.96-2.416,32-6.808V208h46.2  c-20.792,20.424-48.432,32-78.2,32C66.24,240,16,189.76,16,128z M160,448c0,17.648-14.352,32-32,32s-32-14.352-32-32V288h64V448z   M160,272H96v-20.216c10.248,2.656,20.936,4.216,32,4.216c10.984,0,21.688-1.472,32-4.104V272z"/>
<g>
</g>
<g>
</g>
<g>
</g>
<g>
</g>
<g>
</g>
<g>
</g>
<g>
</g>
<g>
</g>
<g>
</g>
<g>
</g>
<g>
</g>
<g>
</g>
<g>
</g>
<g>
</g>
<g>
</g>
</svg>
