<?xml version="1.0" encoding="iso-8859-1"?>
<!-- Generator: Adobe Illustrator 19.0.0, SVG Export Plug-In . SVG Version: 6.00 Build 0)  -->
<svg xmlns="http://www.w3.org/2000/svg" xmlns:xlink="http://www.w3.org/1999/xlink" version="1.1" id="Capa_1" x="0px" y="0px" viewBox="0 0 496 496" style="enable-background:new 0 0 496 496;" xml:space="preserve">
<g>
	<path style="fill:#333333;" d="M0,0v496h496V0H0z M480,16v48H16V16H480z M16,480V80h464v400H16z"/>
	<rect x="32" y="32" style="fill:#333333;" width="16" height="16"/>
	<rect x="64" y="32" style="fill:#333333;" width="16" height="16"/>
	<rect x="96" y="32" style="fill:#333333;" width="16" height="16"/>
	<path style="fill:#333333;" d="M176,112c-70.576,0-128,57.424-128,128s57.424,128,128,128c14.632,0,28.992-2.456,42.664-7.288   l-5.328-15.08C201.368,349.856,188.816,352,176,352c-59.056,0-107.464-45.976-111.592-104h32.008   c3.688,37.224,32.84,67.32,70.712,71.512l1.76-15.904C136.456,300.024,112,272.672,112,240c0-35.288,28.712-64,64-64   c23.192,0,44.632,12.6,55.944,32.88l13.976-7.8c-12.824-22.984-36.08-37.936-61.92-40.544v-32.232   c36.824,2.656,70.448,23.52,89.08,55.8l13.856-8C264.12,136.56,221.608,112,176,112z M96.408,232h-32   c3.936-55.368,48.224-99.656,103.592-103.592v32C130.264,164.168,100.168,194.264,96.408,232z"/>
</g>
<path style="fill:#FFA64D;" d="M336,448h-64v-36.752c-7.344-2.192-14.44-5.136-21.192-8.8l-26,26l-45.256-45.256l26-26  c-3.664-6.76-6.6-13.848-8.8-21.192H160v-64h36.752c2.192-7.344,5.136-14.44,8.8-21.192l-26-26l45.256-45.256l26,26  c6.76-3.664,13.848-6.6,21.192-8.8V160h64v36.752c7.344,2.192,14.44,5.136,21.192,8.8l26-26l45.256,45.256l-26,26  c3.664,6.76,6.6,13.848,8.8,21.192H448v64h-36.752c-2.192,7.344-5.136,14.44-8.8,21.192l26,26l-45.256,45.256l-26-26  c-6.76,3.664-13.848,6.6-21.192,8.8V448z"/>
<g>
	<path style="fill:#333333;" d="M304,368c-35.288,0-64-28.712-64-64s28.712-64,64-64s64,28.712,64,64   c0,12.44-3.568,24.496-10.328,34.864l-13.408-8.736c5.064-7.76,7.736-16.8,7.736-26.128c0-26.472-21.528-48-48-48s-48,21.528-48,48   s21.528,48,48,48c12.128,0,23.696-4.528,32.592-12.76l10.864,11.736C335.6,361.952,320.168,368,304,368z"/>
	<rect x="352" y="96" style="fill:#333333;" width="112" height="16"/>
	<rect x="352" y="128" style="fill:#333333;" width="80" height="16"/>
	<rect x="448" y="128" style="fill:#333333;" width="16" height="16"/>
</g>
<g>
</g>
<g>
</g>
<g>
</g>
<g>
</g>
<g>
</g>
<g>
</g>
<g>
</g>
<g>
</g>
<g>
</g>
<g>
</g>
<g>
</g>
<g>
</g>
<g>
</g>
<g>
</g>
<g>
</g>
</svg>
