<svg id="Layer_5" enable-background="new 0 0 64 64" height="512" viewBox="0 0 64 64" width="512" xmlns="http://www.w3.org/2000/svg"><g><g><g><path d="m13 47.618v-13.236l13.236 6.618z" fill="#f0bc5e"/></g></g><g><g><path d="m44 44.618v-9.236l9.236 4.618z" fill="#f0bc5e"/></g></g><g><g><path d="m44 28.618v-9.236l9.236 4.618z" fill="#f0bc5e"/></g></g><g><path d="m15 17h20v9h-20z" fill="#f0bc5e"/></g><g><path d="m60 1h-46c-1.654 0-3 1.346-3 3v27h-7c-1.654 0-3 1.346-3 3v26c0 1.654 1.346 3 3 3h28c1.654 0 3-1.346 3-3v-9h25c1.654 0 3-1.346 3-3v-44c0-1.654-1.346-3-3-3zm-46 2h46c.551 0 1 .449 1 1v9h-48v-9c0-.551.449-1 1-1zm-10 30h28c.551 0 1 .449 1 1v15h-30v-15c0-.551.449-1 1-1zm28 28h-28c-.551 0-1-.449-1-1v-9h30v9c0 .551-.449 1-1 1zm28-12h-25v-15c0-1.654-1.346-3-3-3h-19v-16h48v33c0 .551-.449 1-1 1z"/><path d="m21 5h-6v6h6zm-2 4h-2v-2h2z"/><path d="m29 5h-6v6h6zm-2 4h-2v-2h2z"/><path d="m37 5h-6v6h6zm-2 4h-2v-2h2z"/><path d="m12 53c-1.302 0-2.402.839-2.816 2h-4.184v2h4.184c.414 1.161 1.514 2 2.816 2s2.402-.839 2.816-2h16.184v-2h-16.184c-.414-1.161-1.514-2-2.816-2zm0 4c-.551 0-1-.449-1-1s.449-1 1-1 1 .449 1 1-.449 1-1 1z"/><path d="m57 33h-18c-1.103 0-2 .897-2 2v10c0 1.103.897 2 2 2h18c1.103 0 2-.897 2-2v-10c0-1.103-.897-2-2-2zm-18 12v-10h18l.001 10z"/><path d="m57 17h-18c-1.103 0-2 .897-2 2v10c0 1.103.897 2 2 2h18c1.103 0 2-.897 2-2v-10c0-1.103-.897-2-2-2zm-18 12v-10h18l.001 10z"/><path d="m15 17h2v2h-2z"/><path d="m19 17h16v2h-16z"/><path d="m15 21h20v2h-20z"/><path d="m15 25h20v2h-20z"/></g></g></svg>