<?xml version="1.0" encoding="iso-8859-1"?>
<!-- Generator: Adobe Illustrator 19.0.0, SVG Export Plug-In . SVG Version: 6.00 Build 0)  -->
<svg xmlns="http://www.w3.org/2000/svg" xmlns:xlink="http://www.w3.org/1999/xlink" version="1.1" id="Capa_1" x="0px" y="0px" viewBox="0 0 496 496" style="enable-background:new 0 0 496 496;" xml:space="preserve">
<g>
	<path style="fill:#FFA64D;" d="M264,216c0-61.856,50.144-112,112-112c35.736,0,67.496,16.8,88,42.864V64H32v256h302.592   C293.256,303.528,264,263.216,264,216z"/>
	<path style="fill:#FFA64D;" d="M417.408,320H464v-34.864C451.896,300.52,435.88,312.64,417.408,320z"/>
</g>
<g>
	<path style="fill:#333333;" d="M376,96c-66.168,0-120,53.832-120,120s53.832,120,120,120s120-53.832,120-120S442.168,96,376,96z    M272,216c0-25.8,9.496-49.384,25.112-67.576L368,219.312v100.28C314.392,315.48,272,270.64,272,216z M384,319.592V224h64v-16   h-68.688l-70.888-70.888C326.616,121.496,350.2,112,376,112c54.64,0,99.48,42.392,103.592,96H464v16h15.592   C475.688,274.96,434.96,315.688,384,319.592z"/>
	<path style="fill:#333333;" d="M416,48H32c-8.824,0-16-7.176-16-16s7.176-16,16-16h432c8.824,0,16,7.176,16,16s-7.176,16-16,16h-32   v16h32c17.648,0,32-14.352,32-32S481.648,0,464,0H32C14.352,0,0,14.352,0,32s14.352,32,32,32h384V48z"/>
	<path style="fill:#333333;" d="M328,384h-48v-64h-16v16h-32v-16h-16v64h-48c-22.056,0-40,17.944-40,40v72h64v-48h24v48h64v-48h24   v48h64v-72C368,401.944,350.056,384,328,384z M352,480h-32v-48h-56v48h-32v-48h-56v48h-32v-56c0-13.232,10.768-24,24-24h64v-48h32   v48h64c13.232,0,24,10.768,24,24V480z"/>
	<rect x="80" y="96" style="fill:#333333;" width="16" height="16"/>
	<rect x="112" y="96" style="fill:#333333;" width="128" height="16"/>
	<rect x="80" y="128" style="fill:#333333;" width="160" height="16"/>
	<rect x="224" y="256" style="fill:#333333;" width="16" height="16"/>
	<rect x="80" y="256" style="fill:#333333;" width="128" height="16"/>
	<rect x="80" y="224" style="fill:#333333;" width="160" height="16"/>
	<rect x="80" y="192" style="fill:#333333;" width="160" height="16"/>
	<rect x="80" y="160" style="fill:#333333;" width="160" height="16"/>
</g>
<g>
</g>
<g>
</g>
<g>
</g>
<g>
</g>
<g>
</g>
<g>
</g>
<g>
</g>
<g>
</g>
<g>
</g>
<g>
</g>
<g>
</g>
<g>
</g>
<g>
</g>
<g>
</g>
<g>
</g>
</svg>
