<svg id="_x33_0" enable-background="new 0 0 64 64" height="512" viewBox="0 0 64 64" width="512" xmlns="http://www.w3.org/2000/svg"><g><g><g><path d="m31 27h-6v-6h6z" fill="#f0bc5e"/></g></g><g><g><path d="m39 27h-6v-6h6z" fill="#f0bc5e"/></g></g><g><path d="m30 34h1v-5h-6v7.686c1.075-1.618 2.912-2.686 5-2.686z" fill="#f0bc5e"/></g><g><path d="m34 34c2.088 0 3.925 1.068 5 2.686v-7.686h-6v5z" fill="#f0bc5e"/></g><path d="m61.051 54.652.445-3.558c.334-2.678.504-5.401.504-8.094 0-2.79-1.151-5.314-3-7.129v-11.871h-1.423c-.514 0-.959-.366-1.062-.887-.1-.502.172-1.01.646-1.206l1.314-.545-3.062-7.391-1.316.545c-.478.197-1.024.028-1.318-.41-.285-.427-.229-1 .135-1.364l1.005-1.008-5.654-5.655-1.009 1.007c-.363.365-.938.419-1.37.129-.43-.288-.599-.843-.4-1.32l.544-1.31-7.395-3.062-.539 1.308c-.197.478-.713.749-1.226.649-.504-.098-.87-.543-.87-1.057v-1.423h-8v1.423c0 .514-.366.959-.887 1.062-.497.099-1.01-.172-1.205-.645l-.543-1.316-7.395 3.062.544 1.309c.198.479.029 1.034-.4 1.322-.432.288-1.008.232-1.377-.135l-1.002-1-5.654 5.655 1 1.003c.366.367.423.945.131 1.382-.285.426-.835.595-1.31.397l-1.316-.545-3.062 7.391 1.303.541c.48.199.755.713.654 1.223-.099.503-.546.871-1.063.871h-1.418v9.869c-1.206.853-2 2.252-2 3.839 0 .867.237 1.69.659 2.401-.428.704-.659 1.516-.659 2.351 0 1.934 1.224 3.643 3.049 4.273.208 1.699 1.128 3.177 2.453 4.132l-.328 1.31-1.768.442c-1.256.313-2.402.963-3.316 1.877-1.348 1.349-2.09 3.142-2.09 5.048v3.458h62v-3.458c0-1.835-.694-3.561-1.949-4.89zm-45.865-.574 1.431.358-1.365 1.755-1.522-1.142zm-3.186 2.172 2.025 1.519-2.025 2.603-2.025-2.603zm6.567-1.064c.333.207.648.444.928.724.971.97 1.505 2.26 1.505 3.632v1.458h-6.956zm4.433 4.356c0-1.373.534-2.663 1.505-3.633.28-.28.595-.517.928-.724l4.523 5.815h-6.956zm3-15.419v.137c-.27-.438-.494-.904-.657-1.393-.228-.682-.343-1.393-.343-2.115v-.752c0-2.757 2.243-5 5-5h4c2.757 0 5 2.243 5 5v.752c0 .721-.115 1.433-.343 2.115-.163.489-.387.956-.657 1.393v-.26c0-1.654-1.346-3-3-3h-3c-.552 0-1-.449-1-1s.448-1 1-1h1v-2h-1c-1.492 0-2.733 1.095-2.962 2.523-1.821.776-3.038 2.571-3.038 4.6zm2 0c0-1.068.563-2.029 1.438-2.563.528.863 1.479 1.44 2.562 1.44h3c.552 0 1 .449 1 1v2c0 2.206-1.794 4-4 4s-4-1.794-4-4zm4 12.127 2.025 1.519-2.025 2.603-2.025-2.603zm3.253-.06-1.522-1.142 1.456-.971 1.431.358zm-3.253-4.19c.576 0 1.132-.086 1.66-.239l.199.798-1.859 1.239-1.859-1.239.199-.798c.528.153 1.084.239 1.66.239zm-3.186 2.078 1.456.97-1.522 1.142-1.365-1.755zm9.753 1.108c.333.207.648.444.928.724.971.97 1.505 2.26 1.505 3.632v1.458h-6.956zm4.433 4.356c0-1.373.534-2.663 1.505-3.633.28-.28.595-.517.928-.724l4.523 5.815h-6.956zm7.155-1.542h3.69l-1.845 2.372zm5.246-2h-6.801l-1.217-1.565.114-.029c1.347-.336 2.403-1.342 2.827-2.65.532.156 1.093.244 1.676.244s1.145-.088 1.678-.243c.423 1.308 1.479 2.313 2.825 2.65l.115.029zm-3.401-6c-2.206 0-4-1.794-4-4v-1.877c0-1.379.935-2.576 2.273-2.91l.082-.021c.657.642 1.514 1.085 2.473 1.222l2.313.331c.49.069.859.495.859.989v2.266c0 2.206-1.794 4-4 4zm8-7c0 2.61-.164 5.25-.488 7.845l-.301 2.405c-.511-.272-1.051-.491-1.617-.633l-.605-.151c-.718-.18-1.275-.737-1.454-1.455l-.037-.146c1.512-1.09 2.502-2.862 2.502-4.865v-2.266c0-1.483-1.107-2.76-2.575-2.969l-2.313-.331c-1.205-.172-2.112-1.218-2.112-2.434v-1h-2v1c0 .501.085.987.242 1.442-1.934.724-3.242 2.575-3.242 4.681v1.877c0 2.003.99 3.775 2.503 4.866l-.036.146c-.18.718-.737 1.275-1.456 1.455l-.604.151c-.567.142-1.107.361-1.618.633l-.301-2.405c-.324-2.596-.488-5.236-.488-7.846 0-4.411 3.589-8 8-8s8 3.589 8 8zm-50.556-19.487c.245-1.245-.302-2.498-1.329-3.179l1.574-3.799c1.204.249 2.479-.25 3.189-1.309.707-1.057.681-2.427-.011-3.449l2.908-2.908c1.023.692 2.394.716 3.449.01 1.056-.705 1.556-1.979 1.309-3.189l3.797-1.573c.678 1.028 1.932 1.573 3.186 1.327 1.247-.246 2.197-1.232 2.429-2.444h4.109c.232 1.212 1.184 2.198 2.438 2.445 1.245.245 2.495-.302 3.175-1.329l3.799 1.573c-.247 1.209.254 2.484 1.314 3.193 1.056.707 2.425.681 3.445-.012l2.905 2.905c-.693 1.021-.719 2.391-.005 3.458.705 1.052 1.979 1.552 3.185 1.301l1.573 3.797c-1.027.677-1.575 1.929-1.327 3.185.245 1.246 1.23 2.196 2.443 2.429v1.526l-4.167-1.823c-1.18-10.502-10.202-18.648-20.832-18.648s-19.652 8.146-20.833 18.648l-4.167 1.823v-1.527c1.213-.234 2.198-1.185 2.444-2.431zm11.556-2.167-7.694 3.366c1.573-8.937 9.47-15.712 18.694-15.712 3.137 0 6.117.791 8.751 2.176l-19.751 2.963zm2-5.485 18-2.7v1.978l-18 2.7zm20-3.284c3.956 2.839 6.815 7.143 7.694 12.135l-7.694-3.366zm-36 17.077 14-6.125v13.471h2v-17.139l18-2.7v19.839h2v-13.471l14 6.125v4.699c-.628-.365-1.295-.67-2-.892v-2.461h-2v2.051c-.329-.033-.662-.051-1-.051s-.671.018-1 .051v-4.051h-2v4.461c-.705.222-1.372.527-2 .892v-7.353h-2v8.871c-1.849 1.816-3 4.339-3 7.129 0 2.693.17 5.416.504 8.093l.445 3.558c-.366.388-.682.809-.949 1.258-.302-.508-.662-.986-1.091-1.414-.914-.915-2.061-1.564-3.316-1.877l-1.768-.442-.328-1.31c1.113-.802 1.938-1.974 2.298-3.337l.508-.484c1.025-.976 1.804-2.202 2.251-3.544.296-.887.446-1.812.446-2.749v-.752c0-3.86-3.141-7-7-7h-4c-3.859 0-7 3.14-7 7v.752c0 .937.15 1.862.446 2.747.447 1.343 1.226 2.569 2.25 3.544l.509.485c.36 1.362 1.185 2.534 2.298 3.337l-.328 1.31-1.768.442c-1.256.313-2.402.963-3.316 1.877-.429.429-.789.906-1.091 1.414-.302-.508-.662-.986-1.091-1.414-.914-.915-2.061-1.564-3.316-1.877l-1.768-.442-.328-1.31c1.113-.802 1.938-1.974 2.298-3.337l.508-.484c1.025-.976 1.804-2.202 2.251-3.544.296-.886.446-1.811.446-2.748 0-1.992-.761-3.804-2-5.179v-8.573h-2v6.973c-.619-.344-1.292-.602-2-.766v-4.207h-2v4h-2v-2h-2v2h-1.292c-.242 0-.475.036-.708.072zm.708 5.346h5.54c3.172 0 5.752 2.581 5.752 5.752 0 .721-.115 1.433-.343 2.115-.163.489-.387.956-.657 1.393v-.26c0-1.654-1.346-3-3-3h-3c-.552 0-1-.449-1-1s.448-1 1-1h1v-2h-1c-1.492 0-2.733 1.095-2.962 2.523-.604.257-1.133.634-1.581 1.087l-.96-.48c-.924-.461-1.497-1.389-1.497-2.422 0-1.493 1.215-2.708 2.708-2.708zm-2.708 7.46c0-.28.052-.553.141-.813.149.097.3.191.461.272l.756.378c-.224.571-.358 1.184-.358 1.826v.347c-.618-.467-1-1.203-1-2.01zm3 1.663c0-1.068.563-2.029 1.438-2.563.528.863 1.479 1.44 2.562 1.44h3c.552 0 1 .449 1 1v2c0 2.206-1.794 4-4 4s-4-1.794-4-4zm4 7.877c.576 0 1.132-.086 1.66-.239l.199.798-1.859 1.239-1.859-1.239.199-.798c.528.153 1.084.239 1.66.239zm-3.186 2.078 1.456.97-1.523 1.142-1.365-1.755zm-5.814 5.464c0-1.373.534-2.663 1.505-3.633.28-.28.595-.517.928-.724l4.523 5.815h-6.956zm58 1.458h-6.956l4.523-5.814c.333.207.648.444.928.724.971.97 1.505 2.26 1.505 3.632z"/></g></svg>