<svg id="Layer_5" enable-background="new 0 0 64 64" height="512" viewBox="0 0 64 64" width="512" xmlns="http://www.w3.org/2000/svg"><g><g><path d="m18 34c-2.385 0-4.602.704-6.47 1.904l.211.2c.812.767 1.259 1.796 1.259 2.896v7c0 2.757 2.243 5 5 5s5-2.243 5-5v-7c0-1.1.447-2.129 1.259-2.896l.211-.2c-1.868-1.2-4.085-1.904-6.47-1.904z" fill="#f0bc5e"/></g><g><path d="m33 34h14v24h-14z" fill="#f0bc5e"/></g><g><path d="m5 17h18v13h-18z" fill="#f0bc5e"/></g><g><path d="m18 33c-7.168 0-13 5.832-13 13s5.832 13 13 13 13-5.832 13-13-5.832-13-13-13zm0 24c-6.065 0-11-4.935-11-11s4.935-11 11-11 11 4.935 11 11-4.935 11-11 11z"/><path d="m19 40h6v2h-6z"/><path d="m19 44h6v2h-6z"/><path d="m11 44h6v2h-6z"/><path d="m11 40h6v2h-6z"/><path d="m57 21v-8h-6v-10c0-1.103-.897-2-2-2h-34.586c-.526 0-1.042.213-1.414.586l-11.414 11.414c-.378.378-.586.88-.586 1.414v41.586c0 3.859 3.141 7 7 7h48c3.859 0 7-3.141 7-7v-35zm-2-6v38c0 .552-.448 1-1 1h-3v-39zm-42-10.586v8.586h-8.586zm-5 56.586c-2.757 0-5-2.243-5-5v-41h12v-12h34v53c0 1.957.807 3.729 2.105 5zm53-5c0 2.757-2.243 5-5 5s-5-2.243-5-5h3c1.654 0 3-1.346 3-3v-30h4z"/><path d="m17 15h30v-10h-30zm2-8h26v6h-26z"/><path d="m33 33h14v2h-14z"/><path d="m33 37h14v2h-14z"/><path d="m33 49h14v2h-14z"/><path d="m33 53h14v2h-14z"/><path d="m33 57h14v2h-14z"/><path d="m33 41h2v2h-2z"/><path d="m37 41h10v2h-10z"/><path d="m45 45h2v2h-2z"/><path d="m33 45h10v2h-10z"/><path d="m25 31h22v-14h-22zm2-12h18v10h-18z"/><path d="m5 17h2v2h-2z"/><path d="m9 17h14v2h-14z"/><path d="m5 21h18v2h-18z"/><path d="m5 25h18v2h-18z"/><path d="m5 29h18v2h-18z"/></g></g></svg>