<?xml version="1.0" encoding="iso-8859-1"?>
<!-- Generator: Adobe Illustrator 19.0.0, SVG Export Plug-In . SVG Version: 6.00 Build 0)  -->
<svg xmlns="http://www.w3.org/2000/svg" xmlns:xlink="http://www.w3.org/1999/xlink" version="1.1" id="Capa_1" x="0px" y="0px" viewBox="0 0 496 496" style="enable-background:new 0 0 496 496;" xml:space="preserve">
<path style="fill:#FFA64D;" d="M320,488c92.784,0,168-75.216,168-168H320V488z"/>
<g>
	<rect x="32" y="32" style="fill:#333333;" width="16" height="16"/>
	<rect x="64" y="32" style="fill:#333333;" width="16" height="16"/>
	<rect x="96" y="32" style="fill:#333333;" width="16" height="16"/>
	<path style="fill:#333333;" d="M312,312v184h8c97.048,0,176-78.952,176-176v-8H312z M476.4,353.096L451.312,328h28.496   C479.376,336.576,478.128,344.92,476.4,353.096z M453.144,408.456c-4.408,6.616-9.336,12.84-14.656,18.72L339.312,328h33.376   l18.608,18.616l11.312-11.312L395.312,328h33.376l42.952,42.952c-2.728,8.088-6.16,15.832-10.088,23.288l-47.904-47.904   l-11.312,11.312L453.144,408.456z M397.144,441.832l-11.312,11.312l8.4,8.4c-7.456,3.928-15.2,7.36-23.288,10.088L328,428.688   v-33.376l46.344,46.344l11.312-11.312L328,372.68v-33.368l99.176,99.176c-5.88,5.32-12.104,10.24-18.72,14.656L397.144,441.832z    M328,451.312l25.088,25.088c-8.168,1.728-16.512,2.976-25.088,3.4V451.312z"/>
	<path style="fill:#333333;" d="M464,288c0-2.68-0.08-5.344-0.2-8h0.2V0H0v464h288h8V296h168V288z M448,16v48H16V16H448z M16,448V80   h432v134.816C420.168,154.208,358.936,112,288,112c-97.048,0-176,78.952-176,176c0,70.936,42.208,132.168,102.816,160H16z    M280,447.8c-84.52-4.176-152-74.256-152-159.8c0-41.24,15.816-78.76,41.528-107.16L280,291.312V447.8z M291.312,280   L180.84,169.528C209.24,143.816,246.76,128,288,128c85.536,0,155.624,67.48,159.808,152H291.312z"/>
	<rect x="272" y="232" style="fill:#333333;" width="152" height="16"/>
	<rect x="272" y="184" style="fill:#333333;" width="16" height="16"/>
	<rect x="304" y="184" style="fill:#333333;" width="16" height="16"/>
	<rect x="336" y="184" style="fill:#333333;" width="16" height="16"/>
	<rect x="144" y="288" style="fill:#333333;" width="120" height="16"/>
	<rect x="248" y="320" style="fill:#333333;" width="16" height="16"/>
	<rect x="144" y="320" style="fill:#333333;" width="88" height="16"/>
	<rect x="248" y="352" style="fill:#333333;" width="16" height="16"/>
	<rect x="216" y="352" style="fill:#333333;" width="16" height="16"/>
	<rect x="184" y="352" style="fill:#333333;" width="16" height="16"/>
</g>
<g>
</g>
<g>
</g>
<g>
</g>
<g>
</g>
<g>
</g>
<g>
</g>
<g>
</g>
<g>
</g>
<g>
</g>
<g>
</g>
<g>
</g>
<g>
</g>
<g>
</g>
<g>
</g>
<g>
</g>
</svg>
